<?xml version="1.0" encoding="UTF-8"?>
<svg viewBox="0 0 300 300" xmlns="http://www.w3.org/2000/svg">
 <g transform="matrix(.18496 -.478 .478 .18496 -33.08 217.81)">
  <path d="m338.69 474-2.521 0.944 2.662 15.064 2.511-0.444-2.652-15.564z" fill="#ffa338" stroke="#000"/>
  <path d="m264.32 474 2.522 0.944-2.662 15.064-2.511-0.444 2.651-15.564z" fill="#ffa338" stroke="#000"/>
  <path d="m347.5 22.167 2.333 10-29 276.67s-4.667 8.668-7.333 13.334-34.666 35.332-34.666 35.332l-13.334-2c0-1e-3 75.667-337.33 82-333.33z" fill="#ccc" stroke="#000"/>
  <path d="m330.54 93.5s-2.5 51.5-5 80-18 97.5-18 101.5-8.5-6-8.5-6-7-23.5-4.5-27.5 17.666-42.292 29-120.5c5-34.5 7-27.5 7-27.5z" fill="#d6d6d6"/>
  <path d="m254.5 23.167c-10.881-3.629 26.667 286.67 26.667 286.67s4.667 8.668 7.333 13.334 34.667 35.332 34.667 35.332l13.333-2c0-1e-3 -80-332.67-82-333.33z" fill="#ccc" stroke="#000"/>
  <path d="m307.17 295.17a6.667 6.667 0 1 0 -13.334 0 6.667 6.667 0 1 0 13.334 0" fill="none" stroke="#000"/>
  <path d="m261.17 353.83s-7.333 18.001-12.667 26.667c-5.971 9.702-31.333 26.001-34.667 28.001s-6.667 2.667-6.667 2.667-18.21 43.641-15.333 53.999c3.333 12 22 43.332 68.667 33.999l22-140.67-21.333-4.667zm-2.517 99.931c-4.874 20.859-20.813 34.968-35.598 31.512s-22.82-23.166-17.945-44.026 20.814-34.967 35.599-31.511c14.786 3.454 22.819 23.165 17.944 44.025z" fill="#ffa338" stroke="#000"/>
  <path d="m395.52 411.5s-3.333-0.667-6.667-2.667-28.695-18.299-34.666-28.001c-5.334-8.666-12.666-26.667-12.666-26.667l-21.334 4.667 22 140.67c46.667 9.333 65.333-21.999 68.666-33.999 2.878-10.358-15.333-53.999-15.333-53.999zm-15.886 74.107c-14.785 3.456-30.724-10.652-35.598-31.512-4.875-20.859 3.158-40.57 17.943-44.025 14.785-3.456 30.725 10.652 35.6 31.511s-3.159 40.571-17.945 44.026z" fill="#ffa338" stroke="#000"/>
  <path d="m321.83 363.17c5.985 11.1 20.088 43.808 34.667 44.666-15.092 15.06-16.958 30.925-17.333 51.334-2.063-15.188-4.27-30.36-6.667-45.5-2.097-13.25-1.876-39.512-10.667-50.5" opacity=".19"/>
  <path d="m324.5 363.83c19.624 18.418 33.477 45.058 60.667 51.334-0.321-12.087-18.013-19.314-26.396-26.876-9.574-8.636-24.3-43.097-34.271-24.458" fill="#fff" opacity=".3"/>
  <path d="m347.83 471.17c10.82 13.602 22.228 21.648 40 16.666-11.659 5.599-30.419 15.179-42.371 5.086-5.639-4.762-3.126-28.748 2.371-21.752" opacity=".19"/>
  <path d="m387.83 413.83c5.091 10.017 16.809 26.456 16.236 37.933 0.29-5.794-7.279-42.412-16.236-37.933" fill="#fff" opacity=".6"/>
  <path d="m339.17 359.17c12.219 28.099 26.799 39.154 52 55.333" fill="none" opacity=".75" stroke="#fff" stroke-linecap="round" stroke-width="2"/>
  <path d="m261.167,353.833c20.224,5.515-.964,30.111-6.415,41.79-4.902,10.504-10.536,11.323-21.585,10.729-10.029-.539-17.203,9.407-24.667,15.148-.914-11.356 7.2-11.843 15.392-16.48 15.937-9.021 43.285-29.331 37.275-51.187" opacity=".19"/>
  <path d="m271.5,360.5c-3.46,18.033-30.018,43.847-11,55 1.447-9.569 3.935-19.191 8-28 1.802-3.904 8.888-23.661 9.074-25.519-.933-2.996-2.958-3.49-6.074-1.481" fill="#fff" opacity=".3"/>
  <path d="m208.5 421.5c-2.906 3.977-9 11.387-9 16.5 0-6.427 6.012-16.917 8-23.5l1 7" fill="#fff" opacity=".75"/>
  <path d="m201 450.5s0 30.5 17.5 38.5" fill="none" opacity=".75" stroke="#fff" stroke-linecap="round" stroke-width="2"/>
  <path d="m343.5 462.84s14.288 26.947 33.496 25.816" fill="none" opacity=".75" stroke="#fff" stroke-linecap="round" stroke-width="2"/>
  <path d="m207.5 485c-3.817-9.423-15.604-33.641-8-43-6.511 18.54-3.334 26.809 8 43" opacity=".19"/>
  <path d="m238,489c13.797-8.98 31.052-31.021 28.093-48.777 1.67,10.019-6.581,27.03-8.315,37.148-.39,2.273.381,16.811-.807,18.109-3.767,4.119-20.191.434-18.971-6.48" opacity=".19"/>
  <path d="m386.5 420s22.91 23.458 10 51c-7.5 16-21 15-21 15s21-1.5 27-19.5c3.453-10.359-7.5-41.5-16-46.5z" opacity=".5"/>
  <path d="m260.25 427.75s7.724 30.113-14.205 51.194c-12.739 12.246-24.982 6.471-24.982 6.471s20.141 6.131 32.197-8.521c6.939-8.431 13.132-41.428 6.99-49.144z" opacity=".5"/>
  <path d="m252.5 34 57 238 6 4-61-251.33s-0.5 7.833-2 9.333z" fill="#ebebeb"/>
  <path d="m263 95.5s2.5 51.5 5 80 18 97.5 18 101.5 8.5-6 8.5-6 7-23.5 4.5-27.5-17.666-42.292-29-120.5c-5-34.5-7-27.5-7-27.5z" fill="#d6d6d6"/>
  <path d="m289 303.5s20.5 4.5 23-0.5 19.5 47.5 19.5 47.5-32.5-42.5-42.5-47z" fill="#d6d6d6"/>
  <path d="m280 324.5s17.5 11 15 12l-2.5 1-14 11.5s5-6.5 1.5-24.5z" fill="#d6d6d6"/>
  <path d="m342 45s-6 63-7 70.5 11.5-79 11.5-79-3 2.5-4.5 8.5z" fill="#b5b5b5"/>
 </g>
</svg>
